# xmcd
#
# Track frame offsets: 
#        150
#        19903
#        31153
#        45135
#        58792
#        72448
#        88368
#        103488
#        117640
#        128053
#
# Disc length: 1901 seconds
#
# Revision: 1
# Processed by: cddbd v1.5.2PL0 Copyright (c) Steve Scherf et al.
# Submitted via: ExactAudioCopy v0.95b2
#
DISCID=8e076b0a
DTITLE=Betty Wright - Hard To Stop
DYEAR=2004
DGENRE=R&B
TTITLE0=I Am Woman
TTITLE1=Sweet Wonder
TTITLE2=The Experts
TTITLE3=We The Two Of Us
TTITLE4=Let Me Go Down
TTITLE5=Gimme Back My Man
TTITLE6=Who'll Be The Fool
TTITLE7=The Babysitter
TTITLE8=If You Think You've Got Soul
TTITLE9=It's Hard To Stop (Doing Something When It's Good To You)
EXTD=
EXTT0=
EXTT1=
EXTT2=
EXTT3=
EXTT4=
EXTT5=
EXTT6=
EXTT7=
EXTT8=
EXTT9=
PLAYORDER=
